<svg version="1.1" id="Layer_1" xmlns="http://www.w3.org/2000/svg" xmlns:xlink="http://www.w3.org/1999/xlink" x="0px" y="0px"
	 width="100%" viewBox="0 0 1092 477" enable-background="new 0 0 1092 477" xml:space="preserve">
<path fill="none" opacity="1.000000" stroke="#000000" stroke-linecap="round" stroke-linejoin="round" stroke-width="4.000000"
	d="
M876.500000,335.000000 
	C867.666687,333.481171 858.838501,335.433502 849.995117,335.156891 
	C848.452271,335.108643 846.656616,335.463379 844.999939,335.465546 
	C810.333313,335.511139 775.657898,335.004120 741.002075,335.616943 
	C689.834106,336.521820 638.663330,336.037872 587.502258,336.680054 
	C563.169800,336.985443 538.837158,337.445190 514.500000,337.500000 
"/>
<path fill="none" opacity="1.000000" stroke="#000000" stroke-linecap="round" stroke-linejoin="round" stroke-width="3.000000"
	d="
M912.000000,186.500000 
	C907.400085,178.040665 900.987061,170.879623 894.398010,164.099136 
	C868.722595,137.677628 837.600647,121.068405 801.519348,113.408913 
	C784.127197,109.716827 766.614624,109.594131 749.001160,109.397491 
	C735.926941,109.251518 722.916687,109.960022 710.017639,111.635834 
	C696.771423,113.356758 683.539978,115.616394 670.525940,118.612610 
	C641.967651,125.187531 614.457153,135.064575 587.503784,146.508926 
	C585.308350,147.441132 583.134644,148.436615 581.006287,149.512451 
	C575.653931,152.217911 570.204651,149.782990 565.029297,149.227066 
	C556.686462,148.330887 548.316711,148.040695 539.992737,147.658707 
	C521.170288,146.794968 502.317108,147.700500 483.503479,148.575104 
	C463.083984,149.524384 442.766724,151.827194 422.506897,154.551254 
	C421.786041,154.648148 421.166656,155.500000 420.500000,156.000000 
"/>
<path fill="none" opacity="1.000000" stroke="#000000" stroke-linecap="round" stroke-linejoin="round" stroke-width="3.000000"
	d="
M985.750000,200.500000 
	C979.345032,196.031479 971.506287,195.379242 964.482483,192.543442 
	C960.580200,190.967972 956.447815,189.969482 952.514404,188.462387 
	C948.436829,186.900009 944.674194,188.830414 941.035034,189.654602 
	C920.912659,194.211792 900.699524,198.316757 880.505249,202.525299 
	C858.648682,207.080307 836.858887,211.957626 814.990845,216.455444 
	C800.872925,219.359207 786.647339,221.738602 772.525269,224.623779 
	C770.822876,224.971603 767.756836,224.693771 767.750000,228.000000 
"/>
<path fill="none" opacity="1.000000" stroke="#000000" stroke-linecap="round" stroke-linejoin="round" stroke-width="3.000000"
	d="
M764.000000,219.500000 
	C768.680969,216.284470 774.357178,216.902359 779.530090,215.621460 
	C789.928955,213.046494 800.500977,211.171448 810.999756,208.998795 
	C824.667419,206.170334 838.351990,203.419510 851.992065,200.463272 
	C858.704651,199.008438 865.286438,196.938034 872.012146,195.559174 
	C880.018250,193.917831 888.036865,192.371613 896.018616,190.583221 
	C909.283508,187.611099 922.896851,185.971344 935.926941,182.244644 
	C946.293762,179.279648 955.292969,180.381683 965.081177,184.297089 
	C978.759277,189.768509 992.975830,193.907944 1007.014404,198.455551 
	C1011.350891,199.860291 1012.597290,202.368027 1010.833252,206.931519 
	C1009.117188,206.877686 1007.472229,207.015121 1005.446228,206.122009 
	C1000.443542,203.916656 995.251831,201.960663 989.943359,200.748077 
	C988.521484,200.423294 985.990173,201.106613 983.925598,201.767731 
	C977.292236,203.891998 970.336304,205.013885 963.499390,206.497116 
	C948.868408,209.671219 934.069519,211.969437 919.469971,215.371078 
	C908.120117,218.015549 896.471558,219.350998 885.007324,221.538315 
	C871.169189,224.178543 857.284424,226.572662 843.454468,229.266098 
	C834.008362,231.105728 824.536621,233.052094 814.990112,234.431366 
	C813.737488,234.612335 813.283875,235.417526 812.500000,236.000000 
"/>
<path fill="none" opacity="1.000000" stroke="#000000" stroke-linecap="round" stroke-linejoin="round" stroke-width="3.000000"
	d="
M741.500000,222.000000 
	C737.307983,218.934708 732.153137,219.599670 727.472351,218.634064 
	C715.053833,216.072296 702.500854,214.161652 689.999756,212.001297 
	C675.500732,209.495682 661.006775,206.959885 646.498291,204.509949 
	C627.505188,201.302689 608.474731,198.307922 589.514709,194.917740 
	C583.481018,193.838867 577.152161,193.898544 571.500000,191.000000 
"/>
<path fill="none" opacity="1.000000" stroke="#000000" stroke-linecap="round" stroke-linejoin="round" stroke-width="4.000000"
	d="
M918.500000,263.000031 
	C906.000000,264.833344 893.495605,266.637268 881.001343,268.508942 
	C870.161621,270.132721 859.349731,271.950897 848.495361,273.466644 
	C837.850037,274.953186 827.152710,276.065002 816.504456,277.532166 
	C807.982483,278.706299 799.539062,280.663483 790.987122,281.336456 
	C784.614380,281.837891 778.412659,283.667114 772.001465,283.455627 
	C770.460632,283.404755 769.383545,283.839386 768.500000,285.000000 
"/>
<path fill="none" opacity="1.000000" stroke="#000000" stroke-linecap="round" stroke-linejoin="round" stroke-width="3.000000"
	d="
M541.000000,154.500000 
	C539.719055,153.180801 538.065918,153.508469 536.500000,153.504379 
	C518.826294,153.458099 501.145905,153.347565 483.502563,154.538147 
	C471.655701,155.337585 459.823822,156.403961 448.007324,157.573853 
	C445.363434,157.835632 442.283325,158.177795 440.567963,160.549164 
	C438.498138,163.410416 435.885620,162.659012 433.518494,161.939209 
	C416.927460,156.894257 400.893494,150.115189 383.999634,146.001465 
	C376.498016,144.174774 369.219299,141.410156 361.494781,140.546570 
	C360.189728,140.400665 359.367035,139.638397 358.529938,138.962921 
	C355.421356,136.454498 353.176971,137.713287 350.448120,139.936325 
	C338.431946,149.725266 326.460144,159.571747 315.075684,170.081985 
	C311.323151,173.546356 306.715759,173.252274 302.475555,174.410538 
	C289.375824,177.988892 276.178528,181.214767 262.993164,184.472336 
	C258.730743,185.525375 254.327637,183.869949 249.993195,184.973251 
	C236.080017,188.514725 221.965927,191.181641 207.966675,194.352890 
	C179.294708,200.847946 151.036606,208.737411 123.003937,217.512589 
	C121.578629,217.958755 120.025894,218.218460 119.000000,219.500000 
"/>
<path fill="none" opacity="1.000000" stroke="#000000" stroke-linecap="round" stroke-linejoin="round" stroke-width="4.000000"
	d="
M336.000000,329.000000 
	C340.802521,335.625763 345.883850,342.010376 352.212158,348.200745 
	C360.791565,340.499084 369.166992,333.022980 377.492920,325.492157 
	C383.529236,320.032318 389.507996,314.508698 395.495605,308.995239 
	C397.551666,307.101990 399.298096,306.086182 402.588531,307.249573 
	C405.317627,308.214447 408.829468,307.380219 412.010590,307.140259 
	C418.308105,306.665222 424.666656,307.000000 431.378784,307.000000 
	C431.830231,317.155792 431.294861,327.333954 430.774536,338.572754 
	C453.833344,338.417969 476.166656,336.975311 498.500000,337.500000 
"/>
<path fill="none" opacity="1.000000" stroke="#000000" stroke-linecap="round" stroke-linejoin="round" stroke-width="3.000000"
	d="
M297.500000,183.000000 
	C292.451080,181.692795 287.913116,184.296829 283.566742,185.705856 
	C251.834259,195.993073 220.770554,208.122223 189.988953,220.973557 
	C187.906876,221.842819 185.666672,222.333328 183.500000,223.000000 
"/>
<path fill="none" opacity="1.000000" stroke="#000000" stroke-linecap="round" stroke-linejoin="round" stroke-width="3.000000"
	d="
M314.000000,190.000000 
	C318.797729,183.533966 326.584137,180.336823 331.720795,174.118469 
	C339.037231,177.980881 347.460114,179.180664 355.523773,181.414124 
	C381.626740,188.644135 407.837769,195.483566 433.988403,202.542999 
	C435.473938,202.944016 437.453186,202.908218 438.000000,205.000000 
"/>
<path fill="none" opacity="1.000000" stroke="#000000" stroke-linecap="round" stroke-linejoin="round" stroke-width="3.000000"
	d="
M297.000000,203.250000 
	C300.721375,198.086334 306.672241,195.449173 310.917542,190.922653 
	C311.842194,189.936707 312.727692,189.799835 313.481689,190.054276 
	C333.920288,196.951202 355.251678,200.327652 376.015228,205.943665 
	C385.258392,208.443741 394.697845,210.210800 403.981049,212.574448 
	C406.775330,213.285904 410.279572,213.575272 411.000000,217.500000 
"/>
<path fill="none" opacity="1.000000" stroke="#000000" stroke-linecap="round" stroke-linejoin="round" stroke-width="4.000000"
	d="
M656.750000,266.000000 
	C657.694336,269.200592 660.574585,269.309448 663.003357,269.435852 
	C681.200867,270.382904 699.346863,271.987335 717.514221,273.303741 
	C724.971802,273.844116 732.459473,274.889282 740.002380,274.553253 
	C742.501587,274.441925 744.979492,274.329773 747.569031,275.319366 
	C749.393555,276.016663 752.042542,276.192993 754.000000,274.500000 
"/>
<path fill="none" opacity="1.000000" stroke="#000000" stroke-linecap="round" stroke-linejoin="round" stroke-width="3.000000"
	d="
M292.000000,201.500000 
	C298.446442,205.493973 305.811188,206.801010 313.010559,208.454041 
	C327.475067,211.775238 341.995728,214.853058 356.501617,217.992554 
	C365.159515,219.866379 373.820312,221.733688 382.514923,223.423233 
	C383.731781,223.659698 384.216156,224.417526 385.000000,225.000000 
"/>
<path fill="none" opacity="1.000000" stroke="#000000" stroke-linecap="round" stroke-linejoin="round" stroke-width="4.000000"
	d="
M481.500000,243.500000 
	C484.117584,244.468872 485.500610,246.508148 486.517914,248.992676 
	C491.082336,260.140717 494.776062,271.449951 496.633575,283.479370 
	C500.073151,305.754639 499.302612,328.130890 499.478271,350.500183 
	C499.483521,351.165497 499.166687,351.833344 499.000031,352.500000 
"/>
<path fill="none" opacity="1.000000" stroke="#000000" stroke-linecap="round" stroke-linejoin="round" stroke-width="3.000000"
	d="
M278.000000,214.000000 
	C285.840729,214.610413 293.206543,217.490433 300.974823,218.666321 
	C312.073730,220.346344 322.998810,223.172272 334.000366,225.498291 
	C343.498627,227.506500 352.988007,229.561371 362.514893,231.423813 
	C363.730865,231.661530 364.216156,232.417526 365.000000,233.000000 
"/>
<path fill="none" opacity="1.000000" stroke="#000000" stroke-linecap="round" stroke-linejoin="round" stroke-width="3.000000"
	d="
M259.500000,185.500000 
	C257.743317,189.404617 253.577057,189.261536 250.454132,190.370895 
	C228.710114,198.095032 207.430756,206.992111 186.040054,215.599548 
	C182.220886,217.136337 178.928360,219.876190 175.128845,221.759903 
	C169.053665,224.771805 163.321198,226.068573 156.489105,225.704163 
	C145.259262,225.105164 134.210297,222.985565 122.997849,222.556076 
	C121.482803,222.498047 120.646446,221.547195 119.500000,221.000000 
"/>
<path fill="none" opacity="1.000000" stroke="#000000" stroke-linecap="round" stroke-linejoin="round" stroke-width="4.000000"
	d="
M495.000000,233.500000 
	C498.347626,239.720627 501.005463,246.199036 503.057617,252.982574 
	C505.794556,262.029877 507.923370,271.165039 509.687958,280.464325 
	C511.204865,288.458435 512.298584,296.511475 512.307922,304.500214 
	C512.325745,319.853973 513.903625,335.150299 513.523438,350.500580 
	C513.506958,351.162720 513.833313,351.833344 513.999939,352.500000 
"/>
<path fill="none" opacity="1.000000" stroke="#000000" stroke-linecap="round" stroke-linejoin="round" stroke-width="3.000000"
	d="
M268.500000,222.500000 
	C270.347534,226.673019 274.673401,226.686920 278.030640,227.343323 
	C290.286499,229.739578 302.681213,231.415176 314.995117,233.528488 
	C323.853577,235.048767 332.664368,236.845657 341.501495,238.491989 
	C343.938171,238.945953 346.045349,239.898438 347.500000,242.000000 
"/>
<path fill="none" opacity="1.000000" stroke="#000000" stroke-linecap="round" stroke-linejoin="round" stroke-width="4.000000"
	d="
M620.500000,256.500000 
	C611.753296,257.313019 602.934692,257.807556 594.511414,260.535248 
	C584.730286,263.702698 574.917664,262.742188 564.990479,261.581360 
	C559.534546,260.943390 553.966064,260.949463 548.490845,260.742706 
	C536.795898,260.301147 525.210815,258.426788 513.499878,258.477173 
	C510.832489,258.488647 508.274689,256.438263 505.500000,258.000000 
"/>
<path fill="none" opacity="1.000000" stroke="#000000" stroke-linecap="round" stroke-linejoin="round" stroke-width="3.000000"
	d="
M1006.000000,207.500000 
	C996.978149,210.953720 987.353455,211.621552 977.986877,213.432068 
	C964.538330,216.031616 950.983154,218.076126 937.515381,220.582489 
	C935.058044,221.039795 932.493835,222.073334 931.000000,224.500000 
"/>
<path fill="none" opacity="1.000000" stroke="#000000" stroke-linecap="round" stroke-linejoin="round" stroke-width="3.000000"
	d="
M219.000000,226.500000 
	C227.578964,253.301743 238.305038,279.308716 248.727371,305.409210 
	C250.816711,310.641479 252.140839,316.490997 256.000000,321.000000 
"/>
<path fill="none" opacity="1.000000" stroke="#000000" stroke-linecap="round" stroke-linejoin="round" stroke-width="3.000000"
	d="
M166.000000,249.500000 
	C174.850586,257.971375 184.924149,264.927765 194.503952,272.494995 
	C207.821609,283.014832 221.117416,293.563629 234.535919,303.953613 
	C237.741760,306.435913 241.697586,307.908203 244.500000,311.000000 
"/>
<path fill="none" opacity="1.000000" stroke="#000000" stroke-linecap="round" stroke-linejoin="round" stroke-width="3.000000"
	d="
M582.000000,185.500000 
	C589.900513,188.470871 598.317078,188.928467 606.507874,190.457718 
	C618.977722,192.785858 631.506836,194.794800 643.998169,197.010300 
	C657.839478,199.465256 671.686340,201.896759 685.495300,204.524551 
	C705.471313,208.325882 725.596802,211.278290 745.542786,215.287262 
	C750.090088,216.201248 754.683533,217.814163 759.501038,217.516968 
	C762.603027,217.325607 763.982117,219.387741 764.454712,222.008179 
	C765.030334,225.199844 762.874573,226.938782 760.028015,225.446609 
	C754.459473,222.527573 748.547241,222.252151 742.500000,222.500000 
"/>
<path fill="none" opacity="1.000000" stroke="#000000" stroke-linecap="round" stroke-linejoin="round" stroke-width="3.000000"
	d="
M159.000000,252.500000 
	C170.333328,261.500000 181.574265,270.619598 193.025345,279.467194 
	C205.078888,288.780273 217.345047,297.817902 229.480774,307.025360 
	C230.617767,307.888000 231.771484,308.901306 232.000000,310.500000 
"/>
<path fill="none" opacity="1.000000" stroke="#000000" stroke-linecap="round" stroke-linejoin="round" stroke-width="3.000000"
	d="
M805.000000,238.000000 
	C809.463745,236.637802 813.769409,237.989456 817.978394,239.083069 
	C821.693848,240.048462 825.114441,240.980347 829.028076,239.578445 
	C835.974915,237.090073 842.368225,240.614197 849.018433,241.904938 
	C867.070007,245.408585 885.262878,248.117188 903.498962,250.508072 
	C905.825928,250.813171 908.057556,252.360794 910.500000,251.000000 
"/>
<path fill="none" opacity="1.000000" stroke="#000000" stroke-linecap="round" stroke-linejoin="round" stroke-width="3.000000"
	d="
M803.500000,239.000000 
	C799.217041,241.701462 794.166748,241.439240 789.477844,242.390991 
	C777.210205,244.881042 764.856689,246.979813 752.492859,248.955170 
	C741.963257,250.637466 731.625366,253.281357 721.019165,254.648712 
	C714.680481,255.465927 708.337952,256.535583 702.014160,257.585144 
	C700.419739,257.849762 699.000000,259.166687 697.500000,260.000031 
"/>
<path fill="none" opacity="1.000000" stroke="#000000" stroke-linecap="round" stroke-linejoin="round" stroke-width="3.000000"
	d="
M212.000000,229.000000 
	C218.166656,245.166672 224.347610,261.327911 230.493927,277.502319 
	C233.528900,285.489014 236.292450,293.588959 239.655106,301.433502 
	C240.434311,303.251251 240.199722,304.826721 240.500000,306.500000 
"/>
<path fill="none" opacity="1.000000" stroke="#000000" stroke-linecap="round" stroke-linejoin="round" stroke-width="3.000000"
	d="
M860.500000,197.500000 
	C856.519653,191.501419 850.236084,188.207077 844.434753,184.605103 
	C827.856689,174.312012 810.364929,165.978088 791.536865,160.376160 
	C778.389832,156.464523 765.062500,154.095673 751.508606,152.429825 
	C742.855286,151.366272 734.175781,150.924484 725.497070,150.572540 
	C716.595154,150.211533 707.805847,151.528778 698.962219,152.719589 
	C692.899597,153.535904 686.658020,153.801468 680.491150,154.410660 
	C668.403259,155.604752 656.642395,158.525085 645.051331,161.688065 
	C624.755981,167.226257 604.686157,173.677567 585.508301,182.518021 
	C577.791260,186.075363 570.214050,189.938568 562.467224,193.427231 
	C560.487122,194.318954 558.913879,195.472244 557.500000,197.000000 
"/>
<path fill="none" opacity="1.000000" stroke="#000000" stroke-linecap="round" stroke-linejoin="round" stroke-width="4.000000"
	d="
M788.500000,236.000000 
	C784.046631,238.740738 778.836609,238.400833 773.981812,239.412720 
	C765.505310,241.179459 756.987732,243.170486 748.464966,244.213837 
	C739.125427,245.357178 730.059143,247.961624 720.519287,248.410385 
	C714.848938,248.677139 708.869751,250.859558 702.991455,251.953964 
	C695.693848,253.312592 688.332703,254.329666 681.000183,255.501175 
	C675.317383,256.409119 669.413269,257.076447 664.089172,258.778809 
	C655.066040,261.663879 646.328735,259.695923 637.506042,259.346741 
	C633.869690,259.202850 630.197083,258.429016 626.500549,258.522827 
	C624.627136,258.570343 622.872498,258.480621 621.500000,257.000000 
"/>
<path fill="none" opacity="1.000000" stroke="#000000" stroke-linecap="round" stroke-linejoin="round" stroke-width="3.000000"
	d="
M487.500000,255.500000 
	C479.923553,255.693375 472.371887,255.338577 465.022247,253.415024 
	C462.837219,252.843155 461.660400,254.257568 460.570740,255.092331 
	C449.455109,263.608032 438.420502,272.234955 427.528625,281.035431 
	C420.542694,286.679932 413.763428,292.587677 407.036652,298.541412 
	C404.571777,300.723083 401.964752,302.891693 400.500000,306.000000 
"/>
<path fill="none" opacity="1.000000" stroke="#000000" stroke-linecap="round" stroke-linejoin="round" stroke-width="4.000000"
	d="
M756.000000,154.000000 
	C754.236206,159.888489 756.278992,165.742340 756.792908,171.473724 
	C757.509827,179.468048 758.251831,187.528412 759.467773,195.504913 
	C760.327332,201.143097 760.195618,206.897675 761.433289,212.514694 
	C761.780945,214.092728 761.801270,215.896790 761.000000,217.500000 
"/>
<path fill="none" opacity="1.000000" stroke="#000000" stroke-linecap="round" stroke-linejoin="round" stroke-width="6.000000"
	d="
M452.500000,201.500000 
	C442.985931,206.420120 432.888763,209.984909 422.965881,213.913818 
	C412.320160,218.128937 401.671234,222.472031 390.884308,226.161819 
	C382.918701,228.886520 375.377563,232.718063 367.092926,234.859512 
	C360.792480,236.488083 354.922974,240.362854 348.571014,242.693542 
	C345.812103,243.705841 344.463745,247.197357 344.529572,250.499405 
	C344.582764,253.166962 344.209778,255.834473 344.937012,258.517090 
	C345.431976,260.342987 344.810394,261.916199 342.521179,260.466522 
	C339.663818,258.657043 337.076752,256.462372 338.537537,252.513885 
	C339.343658,250.334991 337.426270,248.058426 339.000000,246.000000 
"/>
<path fill="none" opacity="1.000000" stroke="#000000" stroke-linecap="round" stroke-linejoin="round" stroke-width="4.000000"
	d="
M761.500000,154.500000 
	C761.316711,163.562958 762.928040,172.492355 763.576721,181.494476 
	C764.430969,193.350327 765.833313,205.166672 766.999939,217.000000 
"/>
<path fill="none" opacity="1.000000" stroke="#000000" stroke-linecap="round" stroke-linejoin="round" stroke-width="3.000000"
	d="
M936.000000,273.500000 
	C946.096802,290.274414 955.303894,307.455902 960.523132,326.493652 
	C961.357971,329.538940 962.500000,332.500000 963.500000,335.500000 
"/>
<path fill="none" opacity="1.000000" stroke="#000000" stroke-linecap="round" stroke-linejoin="round" stroke-width="3.000000"
	d="
M465.500000,215.500000 
	C464.686188,210.566971 461.554077,206.865540 457.893219,204.143616 
	C453.717926,201.039215 450.907867,196.743561 446.995331,193.505661 
	C437.922180,185.997086 428.886597,178.472260 417.518555,174.447586 
	C412.617401,172.712418 407.452301,173.251816 402.448975,171.660416 
	C386.419647,166.561996 370.193787,162.067657 353.966461,157.622467 
	C351.885010,157.052292 350.974579,155.978333 350.000000,154.500000 
"/>
<path fill="none" opacity="1.000000" stroke="#000000" stroke-linecap="round" stroke-linejoin="round" stroke-width="4.000000"
	d="
M161.500000,312.500000 
	C146.363022,314.184357 131.169159,313.287323 115.999863,313.489899 
	C111.167389,313.554443 106.333336,313.500000 101.500000,313.500000 
"/>
<path fill="none" opacity="1.000000" stroke="#000000" stroke-linecap="round" stroke-linejoin="round" stroke-width="4.000000"
	d="
M819.500000,126.500000 
	C816.048950,123.044250 811.111938,123.290955 806.932373,121.674973 
	C805.124634,120.976082 802.955261,120.626793 801.014221,119.958664 
	C799.279907,119.361664 797.544739,119.021973 796.019897,120.030067 
	C786.527771,126.305672 774.931091,128.393906 765.641541,134.708267 
	C758.598633,139.495575 752.224365,138.044632 744.958984,136.725937 
	C740.296570,135.879684 735.416382,135.249954 730.497070,135.409958 
	C721.007080,135.718582 711.499939,135.479691 702.000000,135.508469 
	C697.162964,135.523117 692.395874,137.647171 687.500000,136.000000 
"/>
<path fill="none" opacity="1.000000" stroke="#000000" stroke-linecap="round" stroke-linejoin="round" stroke-width="3.000000"
	d="
M270.500000,238.000000 
	C270.309235,244.668671 273.591797,250.419128 275.574036,256.475769 
	C279.852325,269.547974 283.797241,282.743256 289.000000,295.500000 
"/>
<path fill="none" opacity="1.000000" stroke="#000000" stroke-linecap="round" stroke-linejoin="round" stroke-width="4.000000"
	d="
M152.000000,255.500000 
	C156.428543,263.475189 161.936035,270.786682 166.056763,278.971436 
	C171.343109,289.471283 174.830444,300.652039 176.645813,312.056396 
	C177.599442,318.047180 176.668930,324.667053 176.525848,331.000580 
	C176.401657,336.497772 176.500000,342.000000 176.500000,347.500000 
"/>
<path fill="none" opacity="1.000000" stroke="#000000" stroke-linecap="round" stroke-linejoin="round" stroke-width="3.000000"
	d="
M349.500000,142.000000 
	C351.728912,149.542084 358.832367,149.569748 364.523590,151.427734 
	C380.070465,156.503342 395.667908,161.365585 410.049927,169.410767 
	C411.551422,170.250702 412.828857,170.921906 413.500000,172.500000 
"/>
<path fill="none" opacity="1.000000" stroke="#000000" stroke-linecap="round" stroke-linejoin="round" stroke-width="4.000000"
	d="
M346.500000,307.500000 
	C332.550781,309.421997 318.458618,307.609039 304.508484,309.080444 
	C300.109955,309.544373 296.219696,307.673706 292.021851,307.271820 
	C289.733307,307.052734 287.940643,307.467712 286.557892,308.572449 
	C279.534790,314.183441 271.312317,317.877960 264.009705,323.013794 
	C261.115082,325.049591 257.183624,324.254303 254.378036,326.869141 
	C253.516830,327.671814 251.334854,326.276367 250.547989,324.971069 
	C247.146851,319.329041 240.924286,316.935577 236.513565,312.486542 
	C235.368988,311.332031 234.029404,310.885071 232.500977,311.011841 
	C219.511215,312.089233 206.491562,311.048065 193.503357,311.581726 
	C188.173447,311.800659 182.872070,312.786438 177.500000,312.500000 
"/>
<path fill="none" opacity="1.000000" stroke="#000000" stroke-linecap="round" stroke-linejoin="round" stroke-width="4.000000"
	d="
M591.500000,263.000000 
	C594.972412,266.365753 599.719421,264.892395 603.523682,265.150024 
	C615.669617,265.972687 627.774048,267.887634 640.000549,267.518738 
	C641.904419,267.461334 643.801880,267.576965 645.500000,266.500000 
"/>
<path fill="none" opacity="1.000000" stroke="#000000" stroke-linecap="round" stroke-linejoin="round" stroke-width="3.000000"
	d="
M698.500000,153.500000 
	C701.166687,169.833328 703.870178,186.160889 706.434570,202.510254 
	C706.655884,203.921158 707.115540,205.605438 706.000000,207.000000 
"/>
<path fill="none" opacity="1.000000" stroke="#000000" stroke-linecap="round" stroke-linejoin="round" stroke-width="4.000000"
	d="
M561.500061,199.500000 
	C562.333374,206.333328 563.190186,213.163895 563.993713,220.000748 
	C564.855164,227.330765 565.981201,234.650360 566.362793,242.007111 
	C566.544067,245.503021 568.776001,248.907486 567.000000,252.500000 
"/>
<path fill="none" opacity="1.000000" stroke="#000000" stroke-linecap="round" stroke-linejoin="round" stroke-width="4.000000"
	d="
M588.500000,201.500000 
	C589.123901,215.859573 589.795898,230.214508 591.480164,244.502335 
	C591.870667,247.815399 590.932007,251.211731 592.000000,254.500000 
"/>
<path fill="none" opacity="1.000000" stroke="#000000" stroke-linecap="round" stroke-linejoin="round" stroke-width="3.000000"
	d="
M277.000000,238.500000 
	C276.149323,243.523010 279.090973,247.572403 280.528198,251.990829 
	C284.277771,263.518066 288.135284,275.010651 292.033417,286.488647 
	C292.627075,288.236694 293.666656,289.833344 294.500000,291.500000 
"/>
<path fill="none" opacity="1.000000" stroke="#000000" stroke-linecap="round" stroke-linejoin="round" stroke-width="3.000000"
	d="
M81.500000,227.000000 
	C97.560661,232.378677 113.307190,238.365677 126.523201,249.472397 
	C128.842484,251.421524 131.153671,253.333511 133.000000,255.750000 
"/>
<path fill="none" opacity="1.000000" stroke="#000000" stroke-linecap="round" stroke-linejoin="round" stroke-width="3.000000"
	d="
M692.000000,154.000000 
	C694.833313,169.666672 697.697327,185.327927 700.457581,201.007462 
	C700.770630,202.785690 700.500000,204.666672 700.500000,206.500000 
"/>
<path fill="none" opacity="1.000000" stroke="#000000" stroke-linecap="round" stroke-linejoin="round" stroke-width="3.000000"
	d="
M667.500000,127.000000 
	C662.113098,125.511879 657.343262,128.432449 652.570496,129.754547 
	C645.719055,131.652481 638.984009,134.275360 632.364807,137.193314 
	C626.823914,139.635895 620.137329,139.940262 614.559021,142.622726 
	C604.354309,147.529831 593.361633,150.715393 584.308777,158.270859 
	C579.558594,162.235306 572.773743,163.711441 567.013000,166.526657 
	C556.633606,171.599014 546.341980,176.850861 535.987000,181.973663 
	C534.917236,182.502899 533.666687,182.666656 532.500000,182.999985 
"/>
<path fill="none" opacity="1.000000" stroke="#000000" stroke-linecap="round" stroke-linejoin="round" stroke-width="4.000000"
	d="
M841.500000,238.000000 
	C847.924194,234.714676 854.265991,237.014908 860.482727,238.568985 
	C869.396301,240.797211 878.511108,241.781891 887.489807,243.551697 
	C892.491821,244.537659 897.625366,244.801727 902.526733,246.419022 
	C903.679504,246.799408 905.166687,246.166672 906.500000,246.000000 
"/>
<path fill="none" opacity="1.000000" stroke="#000000" stroke-linecap="round" stroke-linejoin="round" stroke-width="3.000000"
	d="
M135.000000,256.500000 
	C140.657730,263.312653 146.166138,270.162537 150.603989,277.940674 
	C158.262650,291.363892 162.369827,305.573303 163.108765,320.994781 
	C163.502625,329.214783 163.505981,337.347626 162.538239,345.504547 
	C162.423553,346.471161 162.833328,347.500000 163.000000,348.500000 
"/>
<path fill="none" opacity="1.000000" stroke="#000000" stroke-linecap="round" stroke-linejoin="round" stroke-width="3.000000"
	d="
M411.000000,262.500000 
	C408.833344,259.962280 406.424835,262.226257 404.538971,262.666809 
	C391.631317,265.682068 378.706665,268.756165 366.049957,272.661896 
	C359.035065,274.826538 351.943542,276.728241 345.263000,280.589996 
	C340.148895,283.546234 334.648254,287.144501 328.018127,287.711761 
	C324.747070,287.991608 321.476044,290.199402 318.539154,292.061737 
	C312.156464,296.109039 305.708008,300.011902 299.032898,303.561859 
	C297.639801,304.302734 296.666656,305.833344 295.500000,307.000000 
"/>
<path fill="none" opacity="1.000000" stroke="#000000" stroke-linecap="round" stroke-linejoin="round" stroke-width="3.000000"
	d="
M145.500000,250.000000 
	C135.000000,255.500000 124.461266,260.927643 114.012108,266.522614 
	C105.464317,271.099487 97.023315,275.875824 88.342484,280.670044 
	C89.101852,282.198578 89.898125,283.801422 90.972855,285.964783 
	C96.187904,283.210449 101.589050,280.345886 107.001068,277.502014 
	C117.164047,272.161682 127.333328,266.833313 137.499985,261.499969 
"/>
<path fill="none" opacity="1.000000" stroke="#000000" stroke-linecap="round" stroke-linejoin="round" stroke-width="3.000000"
	d="
M760.000000,226.500000 
	C755.893188,229.792923 750.666809,229.256073 745.972168,230.384109 
	C736.063660,232.764954 726.010742,234.557617 715.986084,236.425446 
	C714.763184,236.653290 714.283875,237.417526 713.500000,238.000000 
"/>
<path fill="none" opacity="1.000000" stroke="#000000" stroke-linecap="round" stroke-linejoin="round" stroke-width="3.000000"
	d="
M442.000000,236.500000 
	C442.509491,239.363358 440.918488,241.152756 439.041626,243.041367 
	C435.349609,246.756516 430.455048,248.641342 426.398743,251.872894 
	C418.050964,258.523285 409.640045,265.089508 401.492889,271.991608 
	C387.685486,283.688873 373.806305,295.301666 360.040955,307.048004 
	C358.632568,308.249817 356.792114,307.865631 355.500000,309.000000 
"/>
<path fill="none" opacity="1.000000" stroke="#000000" stroke-linecap="round" stroke-linejoin="round" stroke-width="3.000000"
	d="
M931.000000,282.000000 
	C941.169678,299.110352 949.188538,317.128387 954.000000,336.500000 
"/>
<path fill="none" opacity="1.000000" stroke="#000000" stroke-linecap="round" stroke-linejoin="round" stroke-width="6.000000"
	d="
M469.000000,220.500000 
	C469.022552,218.524506 467.455475,217.432144 466.353455,215.707703 
	C457.024048,218.054977 448.080994,221.741608 439.004547,225.012619 
	C433.646332,226.943634 428.293365,228.900467 423.009033,231.022507 
	C414.334717,234.505875 405.087036,236.742218 396.704529,240.460999 
	C389.401520,243.700882 381.750092,245.487000 374.397888,248.225906 
	C366.661591,251.107910 364.564545,256.763580 363.006622,263.501526 
	C362.797058,264.407898 362.677216,265.335022 362.514801,266.258453 
	C364.787628,267.612732 366.956421,267.733978 369.536102,266.580780 
	C373.227753,264.930450 377.217651,263.961761 380.986053,262.464874 
	C384.968048,260.883179 388.613953,258.978851 392.209564,256.279083 
	C398.277344,251.723083 405.343231,246.957047 412.999664,246.962830 
	C417.723450,246.966400 423.417236,245.663315 428.000000,249.000000 
"/>
<path fill="none" opacity="1.000000" stroke="#000000" stroke-linecap="round" stroke-linejoin="round" stroke-width="3.000000"
	d="
M264.500000,210.500000 
	C260.690979,207.588684 257.179626,210.361053 254.056747,211.638702 
	C242.514023,216.361115 230.504044,219.903870 219.391098,225.794571 
	C216.311752,227.426849 212.446884,228.152023 208.964859,229.402100 
	C206.546234,230.270401 204.338486,231.223846 202.500000,233.000000 
"/>
<path fill="none" opacity="1.000000" stroke="#000000" stroke-linecap="round" stroke-linejoin="round" stroke-width="4.000000"
	d="
M612.500000,204.500000 
	C613.621460,219.646683 614.214722,234.816574 614.500000,250.000000 
"/>
<path fill="none" opacity="1.000000" stroke="#000000" stroke-linecap="round" stroke-linejoin="round" stroke-width="4.000000"
	d="
M934.000000,290.500000 
	C932.949585,301.333344 933.097412,312.162292 933.972595,323.002228 
	C934.307861,327.155243 934.333313,331.333344 934.500000,335.500000 
"/>
<path fill="none" opacity="1.000000" stroke="#000000" stroke-linecap="round" stroke-linejoin="round" stroke-width="4.000000"
	d="
M741.500000,223.000000 
	C737.603394,226.310242 732.455566,225.910370 727.944946,227.324493 
	C721.494324,229.346848 714.693298,230.322083 707.994751,231.469421 
	C691.269043,234.334229 674.633179,237.873779 658.095520,241.442520 
	C641.078491,245.114685 623.778564,247.636581 606.970825,252.396957 
	C601.154175,254.044357 594.894897,254.100311 589.036987,255.640732 
	C585.141968,256.665009 581.989014,254.660828 578.528076,254.258575 
	C567.536743,252.981094 556.482605,252.662643 545.504700,251.457260 
	C536.022827,250.416138 526.480591,250.263184 517.018005,249.319565 
	C512.295837,248.848648 507.708466,247.996231 503.000000,249.000000 
"/>
<path fill="none" opacity="1.000000" stroke="#000000" stroke-linecap="round" stroke-linejoin="round" stroke-width="3.000000"
	d="
M250.500000,325.500000 
	C238.657547,329.632874 229.146164,337.798798 218.520920,344.035645 
	C215.219849,345.973328 212.166656,348.333344 209.000000,350.500000 
"/>
<path fill="none" opacity="1.000000" stroke="#000000" stroke-linecap="round" stroke-linejoin="round" stroke-width="4.000000"
	d="
M535.000000,209.500000 
	C537.582581,216.783493 538.060547,224.499756 539.360657,232.024078 
	C540.383179,237.941742 541.995911,243.870819 541.500000,250.000000 
"/>
<path fill="none" opacity="1.000000" stroke="#000000" stroke-linecap="round" stroke-linejoin="round" stroke-width="3.000000"
	d="
M359.000000,292.000000 
	C355.899017,296.528625 354.574188,301.556152 355.033325,306.997192 
	C355.233429,309.369019 354.518951,311.463165 352.954681,312.952393 
	C347.572601,318.076263 342.124512,323.149231 336.422394,327.906982 
	C334.760590,329.293549 332.221313,328.520874 329.988953,328.052582 
	C324.859100,326.976562 320.570801,327.297852 316.313904,331.825012 
	C310.034698,338.502777 302.500000,344.000000 295.500000,350.000000 
"/>
<path fill="none" opacity="1.000000" stroke="#000000" stroke-linecap="round" stroke-linejoin="round" stroke-width="3.000000"
	d="
M707.500000,119.000000 
	C701.950684,117.195877 696.904907,120.473068 691.507446,120.687691 
	C688.229980,120.818008 684.901611,122.083168 681.507629,122.555000 
	C670.291199,124.114265 662.875916,132.026520 655.059875,139.066467 
	C651.642578,142.144424 647.558105,142.728668 643.489319,143.438629 
	C636.305237,144.692200 628.700684,145.753296 622.191467,148.044067 
	C612.170593,151.570694 601.759888,154.203094 592.036438,158.580872 
	C589.789795,159.592361 588.000000,159.607925 586.000000,158.500000 
"/>
<path fill="none" opacity="1.000000" stroke="#000000" stroke-linecap="round" stroke-linejoin="round" stroke-width="4.000000"
	d="
M931.500000,231.500000 
	C928.406799,224.337372 923.373779,222.163483 914.507324,224.527573 
	C902.176758,227.815338 889.452515,228.900726 876.989868,231.450500 
	C870.714661,232.734375 864.321960,233.436844 858.012512,234.569519 
	C857.089172,234.735275 856.333313,235.833298 855.500000,236.499969 
"/>
<path fill="none" opacity="1.000000" stroke="#000000" stroke-linecap="round" stroke-linejoin="round" stroke-width="3.000000"
	d="
M695.500000,261.500000 
	C683.908813,261.451080 672.369263,262.028900 661.006897,264.531219 
	C659.789124,264.799438 658.666687,265.500000 657.500000,266.000000 
"/>
<path fill="none" opacity="1.000000" stroke="#000000" stroke-linecap="round" stroke-linejoin="round" stroke-width="3.000000"
	d="
M842.000000,135.500000 
	C840.944763,137.519043 838.748962,137.714722 836.981750,138.456482 
	C828.021362,142.217636 819.045349,145.953369 809.957336,149.387131 
	C808.359131,149.990997 807.723999,151.246964 806.500000,152.000000 
"/>
<path fill="none" opacity="1.000000" stroke="#000000" stroke-linecap="round" stroke-linejoin="round" stroke-width="3.000000"
	d="
M861.500000,146.500000 
	C861.117798,143.909149 858.636536,143.538300 856.960999,142.567245 
	C847.468445,137.065674 837.740234,132.021317 827.517456,127.956169 
	C823.817993,126.485077 820.799194,125.815849 816.904602,128.353592 
	C809.119751,133.426178 799.990417,135.812057 791.513794,139.531433 
	C788.848083,140.701096 785.538086,140.896835 784.000000,144.000000 
"/>
<path fill="none" opacity="1.000000" stroke="#000000" stroke-linecap="round" stroke-linejoin="round" stroke-width="3.000000"
	d="
M878.000000,158.500000 
	C874.685364,153.275131 869.218750,150.577591 864.505310,146.993042 
	C863.386230,146.141968 862.367065,146.368591 861.244690,146.990387 
	C852.359802,151.912720 842.212463,153.445572 832.991211,157.479919 
	C830.718201,158.474380 828.063110,158.712479 826.500000,161.000000 
"/>
<path fill="none" opacity="1.000000" stroke="#000000" stroke-linecap="round" stroke-linejoin="round" stroke-width="4.000000"
	d="
M637.500000,209.500000 
	C638.172363,220.031921 635.927063,230.473099 636.526306,240.998505 
	C636.602112,242.330109 635.942017,243.778091 637.000000,245.000000 
"/>
<path fill="none" opacity="1.000000" stroke="#000000" stroke-linecap="round" stroke-linejoin="round" stroke-width="3.000000"
	d="
M298.000000,241.500000 
	C298.806122,243.908997 301.107300,244.706619 303.029053,245.421967 
	C315.596527,250.100128 325.639526,258.204102 334.500854,267.999237 
	C336.495819,270.204376 335.883789,272.923248 336.000000,275.500000 
"/>
<path fill="none" opacity="1.000000" stroke="#000000" stroke-linecap="round" stroke-linejoin="round" stroke-width="3.000000"
	d="
M201.000000,234.250000 
	C192.148529,235.124130 184.883759,240.154343 177.031204,243.571686 
	C165.410965,248.628662 153.698212,253.517059 142.507492,259.513977 
	C141.617218,259.991058 140.833344,260.666687 140.000000,261.250000 
"/>
<path fill="none" opacity="1.000000" stroke="#000000" stroke-linecap="round" stroke-linejoin="round" stroke-width="3.000000"
	d="
M308.500000,174.000000 
	C308.861816,176.080292 307.198273,177.099716 305.961761,177.943970 
	C295.146484,185.328384 286.557495,195.259308 276.500916,203.501114 
	C275.494171,204.326202 274.627441,205.468414 273.480133,205.952942 
	C262.916779,210.413925 258.635406,221.519104 250.036621,228.048218 
	C249.423813,228.513504 249.333328,229.666656 248.999985,230.500000 
"/>
<path fill="none" opacity="1.000000" stroke="#000000" stroke-linecap="round" stroke-linejoin="round" stroke-width="3.000000"
	d="
M795.000000,120.000000 
	C791.118835,115.691414 785.486145,118.567810 780.948914,116.618965 
	C779.053467,115.804848 776.621521,116.688484 774.444153,115.613106 
	C773.438416,115.116440 771.406250,115.343353 770.565979,116.075691 
	C762.024353,123.519951 751.002991,126.369270 741.494080,131.989960 
	C740.042664,132.847855 738.311218,133.303864 737.500000,135.000000 
"/>
<path fill="none" opacity="1.000000" stroke="#000000" stroke-linecap="round" stroke-linejoin="round" stroke-width="3.000000"
	d="
M905.500000,187.500000 
	C899.363708,176.706848 889.971130,168.756927 881.518005,159.982651 
	C880.314636,158.733612 878.773560,158.688004 877.519043,159.063568 
	C867.318481,162.117157 857.151978,165.288208 847.029602,168.590759 
	C846.269897,168.838638 844.783264,169.459930 845.000000,171.000000 
"/>
<path fill="none" opacity="1.000000" stroke="#000000" stroke-linecap="round" stroke-linejoin="round" stroke-width="4.000000"
	d="
M337.750000,254.000000 
	C333.507202,252.543304 331.251068,248.621216 328.150635,245.832520 
	C326.206055,244.083496 324.381165,242.912567 321.995697,242.526611 
	C315.341431,241.450043 308.491333,239.042938 302.038422,239.819336 
	C290.484924,241.209412 279.652008,237.724106 268.536560,236.629044 
	C262.235260,236.008240 256.160889,236.608185 249.999634,236.579437 
	C241.455444,236.539551 233.006561,235.385727 224.498962,235.024292 
	C224.006943,235.003387 223.500000,235.333344 223.000000,235.500015 
"/>
<path fill="none" opacity="1.000000" stroke="#000000" stroke-linecap="round" stroke-linejoin="round" stroke-width="4.000000"
	d="
M821.000000,173.000000 
	C819.841919,183.984985 820.821472,195.002350 820.500000,206.000000 
"/>
<path fill="none" opacity="1.000000" stroke="#000000" stroke-linecap="round" stroke-linejoin="round" stroke-width="3.000000"
	d="
M422.000000,254.000000 
	C417.578339,252.374924 413.563721,254.669876 409.534729,255.643646 
	C405.349335,256.655212 401.204590,257.959229 397.015198,259.057922 
	C394.598145,259.691772 392.333344,259.953003 390.000000,259.000000 
"/>
<path fill="none" opacity="1.000000" stroke="#000000" stroke-linecap="round" stroke-linejoin="round" stroke-width="4.000000"
	d="
M934.500000,273.000000 
	C928.777039,278.444153 926.787415,285.408539 926.515808,293.000580 
	C926.008484,307.183746 926.640503,321.345703 927.500000,335.500000 
"/>
<path fill="none" opacity="1.000000" stroke="#000000" stroke-linecap="round" stroke-linejoin="round" stroke-width="4.000000"
	d="
M769.500000,116.500000 
	C766.984985,114.953346 764.191345,115.543808 761.499817,115.519646 
	C754.833679,115.459824 747.889221,114.324936 741.574585,115.815948 
	C734.649841,117.451050 729.350891,123.396507 722.525696,126.065720 
	C719.703979,127.169235 717.247925,129.178680 714.472778,130.440155 
	C712.465454,131.352615 710.415405,131.946518 710.000000,134.500000 
"/>
<path fill="none" opacity="1.000000" stroke="#000000" stroke-linecap="round" stroke-linejoin="round" stroke-width="4.000000"
	d="
M149.000000,226.500000 
	C148.813431,227.659286 149.609009,228.888733 147.727722,230.092316 
	C142.815887,229.477936 136.870560,228.948273 131.017349,227.902893 
	C128.471802,227.448257 125.939720,227.293060 123.511879,227.595383 
	C118.858376,228.174850 115.033791,227.132019 112.000000,223.500000 
"/>
<path fill="none" opacity="1.000000" stroke="#000000" stroke-linecap="round" stroke-linejoin="round" stroke-width="4.000000"
	d="
M737.500000,116.500000 
	C735.639282,115.331078 733.548401,115.323723 731.502563,115.525948 
	C725.495361,116.119781 719.511658,117.027649 713.493286,117.388420 
	C711.541138,117.505440 709.419495,118.176773 708.643066,119.118011 
	C704.256165,124.435715 697.903870,126.764694 692.500977,130.501450 
	C690.827820,131.658676 688.860168,132.567795 687.568298,134.059143 
	C685.355347,136.613831 682.698608,137.471771 679.500244,137.516785 
	C673.031494,137.607849 666.751892,138.933655 660.483459,140.430786 
	C658.919678,140.804276 657.103210,140.801270 655.500000,140.000000 
"/>
<path fill="none" opacity="1.000000" stroke="#000000" stroke-linecap="round" stroke-linejoin="round" stroke-width="3.000000"
	d="
M562.500000,156.000000 
	C554.734253,162.235168 545.759521,166.288834 536.447144,169.338638 
	C531.503662,170.957611 527.424072,174.035599 524.248474,177.245819 
	C518.455750,183.101791 511.843048,182.427505 504.467499,182.583771 
	C504.671387,176.388107 504.938873,170.176849 501.601929,164.628998 
	C505.598236,161.252945 509.299103,158.126465 513.000000,154.999985 
"/>
<path fill="none" opacity="1.000000" stroke="#000000" stroke-linecap="round" stroke-linejoin="round" stroke-width="3.000000"
	d="
M893.500000,173.999985 
	C884.333313,176.499985 875.183899,179.067520 865.978455,181.415588 
	C864.811035,181.713379 864.283875,182.417526 863.500000,183.000000 
"/>
<path fill="none" opacity="1.000000" stroke="#000000" stroke-linecap="round" stroke-linejoin="round" stroke-width="4.000000"
	d="
M825.500000,175.500000 
	C824.089172,181.833328 826.031372,188.157578 825.547546,194.503616 
	C825.282227,197.983398 825.500000,201.500000 825.500000,205.000000 
"/>
<path fill="none" opacity="1.000000" stroke="#000000" stroke-linecap="round" stroke-linejoin="round" stroke-width="3.000000"
	d="
M83.500000,215.500000 
	C90.188873,216.105103 96.256989,218.850235 102.502899,220.991547 
	C106.654266,222.414810 110.773811,224.502960 115.053696,221.066879 
	C115.844460,220.432022 117.333336,220.666672 118.500000,220.500015 
"/>
<path fill="none" opacity="1.000000" stroke="#000000" stroke-linecap="round" stroke-linejoin="round" stroke-width="3.000000"
	d="
M353.000000,149.500000 
	C347.115448,156.086807 339.501770,160.624496 332.906586,166.393204 
	C319.370880,178.232666 304.653625,188.660217 291.357971,200.845016 
	C288.112152,203.819641 284.165436,206.338318 280.457123,208.938858 
	C277.672577,210.891602 277.479767,214.354935 275.065186,216.571030 
	C268.812012,222.310272 259.654327,224.216690 254.930664,231.957687 
	C254.630447,232.449677 253.182419,232.708160 252.523071,232.442703 
	C244.927750,229.384781 236.829346,230.519653 228.989517,229.588272 
	C226.157181,229.251785 223.440720,227.920547 220.500000,228.500000 
"/>
<path fill="none" opacity="1.000000" stroke="#000000" stroke-linecap="round" stroke-linejoin="round" stroke-width="3.000000"
	d="
M478.000000,190.500000 
	C478.000000,191.500000 478.224915,192.563156 477.964661,193.490067 
	C475.741516,201.407455 478.910278,207.543716 484.825195,213.316238 
	C479.522095,215.871262 475.892090,220.097626 469.550537,220.899567 
	C465.718872,221.384140 461.883942,224.918716 458.020630,227.037628 
	C453.763428,229.372589 449.735016,232.124405 445.479309,234.462326 
	C441.790192,236.488998 437.589722,236.920151 433.496002,237.470337 
	C426.561707,238.402313 420.329590,240.688141 415.500000,246.000000 
"/>
<path fill="none" opacity="1.000000" stroke="#000000" stroke-linecap="round" stroke-linejoin="round" stroke-width="3.000000"
	d="
M934.000000,233.000000 
	C938.408325,234.675888 938.238403,239.244995 939.286865,242.567276 
	C940.913513,247.721832 944.361023,252.613739 943.000000,258.500000 
	C943.500000,258.500000 944.000000,258.500000 944.500000,258.500000 
"/>
<path fill="none" opacity="1.000000" stroke="#000000" stroke-linecap="round" stroke-linejoin="round" stroke-width="3.000000"
	d="
M697.000000,233.000000 
	C697.154297,230.512375 695.190613,230.278915 693.521362,229.456589 
	C682.353088,223.954651 670.860718,219.405045 659.089539,215.246506 
	C644.972717,210.259277 630.612061,206.733124 615.987793,204.066818 
	C606.918823,202.413376 597.680237,201.609818 588.566650,200.467987 
	C580.361206,199.439911 572.055481,200.961609 563.975525,198.583054 
	C556.400574,196.353149 549.875000,199.475113 543.456665,203.429642 
	C532.653015,210.086029 521.028748,215.306046 510.447662,222.422180 
	C501.703674,228.302841 492.500000,233.500015 483.500000,239.000015 
"/>
<path fill="none" opacity="1.000000" stroke="#000000" stroke-linecap="round" stroke-linejoin="round" stroke-width="3.000000"
	d="
M932.000000,233.500000 
	C934.666687,241.333328 937.342224,249.163666 939.986450,257.004578 
	C940.255859,257.803436 939.571167,258.819092 940.500000,259.500000 
"/>
<path fill="none" opacity="1.000000" stroke="#000000" stroke-linecap="round" stroke-linejoin="round" stroke-width="3.000000"
	d="
M933.000000,231.750000 
	C929.285156,233.104156 927.595337,235.483185 928.988586,239.503967 
	C929.557739,241.146652 929.665710,243.042053 930.554688,244.465866 
	C935.992126,253.174576 935.950378,262.788635 935.500000,272.500000 
"/>
<path fill="none" opacity="1.000000" stroke="#000000" stroke-linecap="round" stroke-linejoin="round" stroke-width="3.000000"
	d="
M310.000000,285.500000 
	C309.768646,287.627869 309.047729,289.201324 307.062134,290.588928 
	C302.205109,293.983185 297.658813,297.823425 293.004333,301.505463 
	C291.406799,302.769226 289.888062,304.110687 290.500000,306.500000 
"/>
<path fill="none" opacity="1.000000" stroke="#000000" stroke-linecap="round" stroke-linejoin="round" stroke-width="3.000000"
	d="
M906.500000,227.500000 
	C911.166687,234.500000 915.827942,241.503586 920.505188,248.496521 
	C921.301880,249.687698 922.363831,250.740265 922.966064,252.016006 
	C925.645691,257.692657 929.512512,261.879181 936.473816,262.724121 
	C938.171692,261.674835 940.335876,260.337433 942.500000,259.000000 
"/>
<path fill="none" opacity="1.000000" stroke="#000000" stroke-linecap="round" stroke-linejoin="round" stroke-width="4.000000"
	d="
M658.999939,216.000000 
	C658.499939,224.333328 657.999939,232.666656 657.499939,241.000000 
"/>
<path fill="none" opacity="1.000000" stroke="#000000" stroke-linecap="round" stroke-linejoin="round" stroke-width="4.000000"
	d="
M149.500000,230.000000 
	C150.116913,230.860687 150.751877,231.492661 151.998856,231.534180 
	C160.001099,231.800552 168.000000,232.166672 176.000000,232.500000 
"/>
<path fill="none" opacity="1.000000" stroke="#000000" stroke-linecap="round" stroke-linejoin="round" stroke-width="3.000000"
	d="
M621.500000,170.000000 
	C623.678650,177.533890 624.647217,185.304520 626.000000,193.000000 
"/>
<path fill="none" opacity="1.000000" stroke="#000000" stroke-linecap="round" stroke-linejoin="round" stroke-width="3.000000"
	d="
M720.000000,247.750000 
	C718.720337,243.467102 714.708435,241.446930 711.830139,238.676483 
	C709.205627,236.150299 705.255981,238.563858 702.017334,239.103989 
	C692.801270,240.641022 683.662476,242.645950 674.501770,244.508560 
	C669.825073,245.459457 665.175964,246.546036 660.497803,247.489105 
	C653.673035,248.864914 646.836182,250.181534 639.999084,251.495224 
	C634.670349,252.519058 629.348877,253.601181 623.988403,254.424561 
	C622.742004,254.616028 622.283875,255.417526 621.500000,256.000000 
"/>
<path fill="none" opacity="1.000000" stroke="#000000" stroke-linecap="round" stroke-linejoin="round" stroke-width="3.000000"
	d="
M254.500000,327.500000 
	C253.800232,329.412109 253.502625,331.479187 255.038040,332.960571 
	C259.612000,337.373474 258.981262,342.991455 259.013184,348.499908 
	C259.017151,349.183655 258.678009,349.997162 259.500000,350.500000 
"/>
<path fill="none" opacity="1.000000" stroke="#000000" stroke-linecap="round" stroke-linejoin="round" stroke-width="4.000000"
	d="
M502.000000,168.500000 
	C499.313171,170.078552 496.787598,170.312454 493.457581,169.752090 
	C487.946960,168.824783 482.096802,168.944077 476.518219,169.645035 
	C469.997009,170.464432 463.510559,170.372437 457.000000,170.499908 
	C455.040588,170.538254 452.946411,170.081299 451.500000,172.000000 
"/>
<path fill="none" opacity="1.000000" stroke="#000000" stroke-linecap="round" stroke-linejoin="round" stroke-width="3.000000"
	d="
M120.500000,228.500000 
	C126.061592,233.694397 133.035980,236.877579 139.002197,241.497147 
	C142.047180,243.854813 144.875702,246.393982 146.500000,250.000000 
"/>
<path fill="none" opacity="1.000000" stroke="#000000" stroke-linecap="round" stroke-linejoin="round" stroke-width="4.000000"
	d="
M508.000000,225.500000 
	C508.833344,232.833328 509.666687,240.166672 510.500000,247.500000 
"/>
<path fill="none" opacity="1.000000" stroke="#000000" stroke-linecap="round" stroke-linejoin="round" stroke-width="3.000000"
	d="
M873.000000,194.750000 
	C869.658325,189.273529 864.561707,185.745636 859.582947,181.892776 
	C850.076416,174.535965 839.871582,168.592377 829.059448,163.376785 
	C818.687378,158.373520 808.361633,153.393738 797.523254,149.436340 
	C786.438293,145.388931 775.168884,142.241119 763.507751,140.449539 
	C762.781372,140.337936 762.166687,139.500000 761.500000,139.000000 
"/>
<path fill="none" opacity="1.000000" stroke="#000000" stroke-linecap="round" stroke-linejoin="round" stroke-width="3.000000"
	d="
M361.500000,267.000000 
	C360.078461,268.754974 358.204956,269.519135 356.017303,270.068909 
	C352.538666,270.943024 349.032074,271.782379 345.969086,273.956421 
	C342.277679,276.576477 337.542328,275.330322 333.480377,276.950836 
	C325.793182,280.017548 317.719299,282.116302 309.876526,284.611969 
	C295.017090,289.340485 284.977173,300.630615 272.510925,308.517242 
	C267.074219,311.956696 262.516815,316.466187 258.000000,321.000000 
"/>
<path fill="none" opacity="1.000000" stroke="#000000" stroke-linecap="round" stroke-linejoin="round" stroke-width="4.000000"
	d="
M573.500000,151.000000 
	C569.782776,154.455154 566.132996,156.251160 560.422119,154.808197 
	C555.760193,153.630280 550.567505,152.899200 545.497681,153.479492 
	C544.252930,153.621964 542.944397,153.314301 541.994873,154.495850 
	C539.054993,158.153885 534.491089,159.591873 531.000000,162.500000 
"/>
<path fill="none" opacity="1.000000" stroke="#000000" stroke-linecap="round" stroke-linejoin="round" stroke-width="3.000000"
	d="
M615.000000,172.000000 
	C616.333313,178.666672 617.666626,185.333344 619.000000,192.000000 
"/>
<path fill="none" opacity="1.000000" stroke="#000000" stroke-linecap="round" stroke-linejoin="round" stroke-width="3.000000"
	d="
M768.500000,228.000000 
	C773.425842,230.948837 779.084778,231.344299 784.520813,232.392151 
	C786.059021,232.688660 787.291626,233.166702 788.500000,234.000000 
"/>
<path fill="none" opacity="1.000000" stroke="#000000" stroke-linecap="round" stroke-linejoin="round" stroke-width="4.000000"
	d="
M437.500000,163.000000 
	C438.484192,167.967728 441.859222,170.482697 446.507233,171.465805 
	C449.829956,172.168579 451.679230,174.298599 453.600494,176.926529 
	C456.016693,180.231491 458.907288,183.329437 462.114594,185.854431 
	C463.612000,187.033264 465.977692,188.678040 468.525299,187.039337 
	C469.190582,186.611404 470.594757,186.231171 470.935242,186.565857 
	C475.420105,190.974808 481.005524,188.133591 486.000000,189.000000 
"/>
<path fill="none" opacity="1.000000" stroke="#000000" stroke-linecap="round" stroke-linejoin="round" stroke-width="3.000000"
	d="
M352.000000,158.000000 
	C346.526642,164.354553 339.009094,168.281616 333.000000,174.000000 
"/>
<path fill="none" opacity="1.000000" stroke="#000000" stroke-linecap="round" stroke-linejoin="round" stroke-width="4.000000"
	d="
M504.000000,169.500000 
	C512.098145,167.488617 520.340027,168.989746 528.499146,168.486145 
	C530.098999,168.387390 531.455017,168.731049 532.500000,170.000000 
"/>
<path fill="none" opacity="1.000000" stroke="#000000" stroke-linecap="round" stroke-linejoin="round" stroke-width="3.000000"
	d="
M331.000000,266.500000 
	C326.500000,269.833344 322.101593,273.318848 317.449646,276.424561 
	C315.608276,277.653870 314.877502,278.968994 315.000000,281.000000 
"/>
<path fill="none" opacity="1.000000" stroke="#000000" stroke-linecap="round" stroke-linejoin="round" stroke-width="3.000000"
	d="
M346.000000,321.500000 
	C350.500854,327.628967 354.870575,333.859924 360.000000,339.500000 
"/>
<path fill="none" opacity="1.000000" stroke="#000000" stroke-linecap="round" stroke-linejoin="round" stroke-width="3.000000"
	d="
M733.000000,254.000000 
	C733.105713,256.901917 736.078491,256.557953 737.546021,257.951538 
	C747.123230,267.045776 756.857849,275.973969 766.472290,285.029419 
	C767.839172,286.316833 768.833313,288.000000 770.000000,289.500000 
"/>
<path fill="none" opacity="1.000000" stroke="#000000" stroke-linecap="round" stroke-linejoin="round" stroke-width="3.000000"
	d="
M516.000000,196.000000 
	C518.333374,202.000000 520.666687,208.000000 523.000000,214.000000 
"/>
<path fill="none" opacity="1.000000" stroke="#000000" stroke-linecap="round" stroke-linejoin="round" stroke-width="4.000000"
	d="
M369.500000,334.000000 
	C371.451477,336.900848 370.061951,339.987305 370.692444,343.630249 
	C367.104492,343.195038 364.088959,344.410522 361.500000,342.000000 
"/>
<path fill="none" opacity="1.000000" stroke="#000000" stroke-linecap="round" stroke-linejoin="round" stroke-width="3.000000"
	d="
M473.000000,221.500000 
	C476.551208,226.523270 479.098236,232.110046 482.072052,237.459946 
	C484.037811,240.996307 482.578827,242.552948 479.491364,243.470993 
	C473.787964,245.166855 469.295837,248.550003 465.500000,253.000000 
"/>
<path fill="none" opacity="1.000000" stroke="#000000" stroke-linecap="round" stroke-linejoin="round" stroke-width="3.000000"
	d="
M364.000000,258.000000 
	C361.839905,257.372803 360.097076,257.312134 357.904053,258.864471 
	C354.342712,261.385406 349.963562,262.679108 346.500000,265.500000 
"/>
<path fill="none" opacity="1.000000" stroke="#000000" stroke-linecap="round" stroke-linejoin="round" stroke-width="4.000000"
	d="
M697.500000,263.000000 
	C698.843079,264.475677 700.554016,264.896667 702.498230,265.026581 
	C714.168518,265.806335 725.830566,266.709137 737.501892,267.470642 
	C740.489197,267.665558 743.500000,269.750488 746.500000,267.500000 
"/>
<path fill="none" opacity="1.000000" stroke="#000000" stroke-linecap="round" stroke-linejoin="round" stroke-width="4.000000"
	d="
M355.000000,277.000000 
	C356.538269,281.367493 354.103027,285.065521 353.012939,289.003571 
	C350.367401,298.560822 346.606506,307.871582 346.500000,318.000000 
"/>
<path fill="none" opacity="1.000000" stroke="#000000" stroke-linecap="round" stroke-linejoin="round" stroke-width="3.000000"
	d="
M895.000000,229.500000 
	C898.091980,236.100983 903.352234,241.236267 907.757324,246.796143 
	C913.897705,254.546326 918.913452,262.943146 924.504578,270.996826 
	C926.168274,273.393280 927.026672,276.396637 929.750000,278.000000 
"/>
<path fill="none" opacity="1.000000" stroke="#000000" stroke-linecap="round" stroke-linejoin="round" stroke-width="3.000000"
	d="
M484.000000,214.500000 
	C488.596802,219.379913 491.098175,225.656784 495.000000,231.000000 
"/>
<path fill="none" opacity="1.000000" stroke="#000000" stroke-linecap="round" stroke-linejoin="round" stroke-width="3.000000"
	d="
M454.000000,175.500000 
	C459.728271,175.347137 464.068970,179.005524 468.963379,181.086151 
	C470.831696,181.880371 470.497711,184.184021 470.500000,186.000000 
"/>
<path fill="none" opacity="1.000000" stroke="#000000" stroke-linecap="round" stroke-linejoin="round" stroke-width="4.000000"
	d="
M361.500000,275.500000 
	C361.737152,278.304871 360.394165,280.821106 360.035431,283.504730 
	C359.576141,286.940582 358.083221,290.226349 361.312103,293.675873 
	C363.125793,295.613525 362.743500,299.433655 364.500000,302.000000 
"/>
<path fill="none" opacity="1.000000" stroke="#000000" stroke-linecap="round" stroke-linejoin="round" stroke-width="3.000000"
	d="
M479.000000,156.000000 
	C477.292694,160.540436 472.321045,161.624374 469.474609,164.978455 
	C468.319580,166.339447 466.588837,167.362946 468.000000,169.500000 
"/>
<path fill="none" opacity="1.000000" stroke="#000000" stroke-linecap="round" stroke-linejoin="round" stroke-width="3.000000"
	d="
M496.500000,171.000000 
	C492.658875,173.921890 489.450714,178.079330 483.444122,175.637421 
	C481.118500,174.691986 478.754913,176.958710 476.505219,178.011154 
	C474.480499,178.958328 472.500000,179.999985 470.500000,180.999985 
"/>
<path fill="none" opacity="1.000000" stroke="#000000" stroke-linecap="round" stroke-linejoin="round" stroke-width="4.000000"
	d="
M267.500000,311.000000 
	C262.674164,308.054077 257.536987,309.778473 252.500000,310.000000 
"/>
<path fill="none" opacity="1.000000" stroke="#000000" stroke-linecap="round" stroke-linejoin="round" stroke-width="4.000000"
	d="
M503.500000,200.000000 
	C500.746582,204.219055 495.752411,205.228073 491.894073,207.843750 
	C489.413452,209.525406 487.031311,211.380325 484.500000,213.000000 
"/>
<path fill="none" opacity="1.000000" stroke="#000000" stroke-linecap="round" stroke-linejoin="round" stroke-width="3.000000"
	d="
M361.000000,251.500000 
	C356.332336,254.789810 351.045380,256.918396 346.000000,259.500000 
"/>
<path fill="none" opacity="1.000000" stroke="#000000" stroke-linecap="round" stroke-linejoin="round" stroke-width="4.000000"
	d="
M391.500000,244.000000 
	C394.206635,245.889450 397.274323,246.447754 400.499725,246.512863 
	C402.391022,246.551056 404.600861,245.914520 405.500000,248.500000 
"/>
<path fill="none" opacity="1.000000" stroke="#000000" stroke-linecap="round" stroke-linejoin="round" stroke-width="3.000000"
	d="
M522.500000,185.000000 
	C524.398682,187.093948 528.137024,185.968552 529.760925,189.172638 
	C522.405029,192.325562 515.048096,195.104492 508.053955,198.607697 
	C503.343414,200.967087 499.793915,197.074005 495.490112,197.234177 
	C493.645264,197.302826 491.125977,196.298920 489.000000,195.500000 
"/>
<path fill="none" opacity="1.000000" stroke="#000000" stroke-linecap="round" stroke-linejoin="round" stroke-width="4.000000"
	d="
M151.000000,232.000000 
	C152.097824,234.907715 150.775208,237.670029 150.558777,240.504486 
	C150.407761,242.482254 150.099060,244.561188 151.000000,246.500000 
"/>
<path fill="none" opacity="1.000000" stroke="#000000" stroke-linecap="round" stroke-linejoin="round" stroke-width="4.000000"
	d="
M803.500000,237.000000 
	C800.139038,234.651978 796.163574,235.574081 792.480957,235.176361 
	C791.468262,235.066986 790.586731,235.106354 789.750000,234.500000 
"/>
<path fill="none" opacity="1.000000" stroke="#000000" stroke-linecap="round" stroke-linejoin="round" stroke-width="3.000000"
	d="
M466.500000,188.500000 
	C468.255859,193.928650 471.661865,198.037170 476.500000,201.000000 
"/>
<path fill="none" opacity="1.000000" stroke="#000000" stroke-linecap="round" stroke-linejoin="round" stroke-width="4.000000"
	d="
M486.500000,177.500000 
	C488.416656,183.190475 486.751892,189.196899 488.141907,195.084534 
	C488.740387,197.619476 487.664154,201.313904 487.487152,204.499283 
	C487.388733,206.270676 487.564392,207.953796 488.500000,209.500000 
"/>
<path fill="none" opacity="1.000000" stroke="#000000" stroke-linecap="round" stroke-linejoin="round" stroke-width="4.000000"
	d="
M679.000000,224.000000 
	C677.858215,228.295822 678.816528,232.672424 678.500000,237.000000 
"/>
<path fill="none" opacity="1.000000" stroke="#000000" stroke-linecap="round" stroke-linejoin="round" stroke-width="4.000000"
	d="
M348.500000,247.000000 
	C349.283844,247.582474 349.667511,248.584656 351.001343,248.541168 
	C356.373871,248.365952 361.126312,250.693039 366.000000,252.500000 
"/>
<path fill="none" opacity="1.000000" stroke="#000000" stroke-linecap="round" stroke-linejoin="round" stroke-width="3.000000"
	d="
M293.000000,203.500000 
	C291.061035,208.327957 285.602539,209.804016 283.000000,214.000000 
"/>
<path fill="none" opacity="1.000000" stroke="#000000" stroke-linecap="round" stroke-linejoin="round" stroke-width="3.000000"
	d="
M146.000000,232.000000 
	C142.491028,235.178818 144.447311,239.783356 143.000000,243.500000 
"/>
<path fill="none" opacity="1.000000" stroke="#000000" stroke-linecap="round" stroke-linejoin="round" stroke-width="4.000000"
	d="
M928.000000,236.500015 
	C924.166687,237.666687 920.333313,238.833344 916.500000,240.000015 
"/>
<path fill="none" opacity="1.000000" stroke="#000000" stroke-linecap="round" stroke-linejoin="round" stroke-width="4.000000"
	d="
M201.750000,233.000000 
	C201.661453,235.841156 203.716446,235.484863 205.500031,235.495773 
	C208.166595,235.512070 210.833328,235.500000 213.500000,235.500000 
"/>
<path fill="none" opacity="1.000000" stroke="#000000" stroke-linecap="round" stroke-linejoin="round" stroke-width="4.000000"
	d="
M345.500000,245.000000 
	C340.750946,245.268936 336.059723,245.192886 331.478638,243.559967 
	C330.361725,243.161835 328.916809,243.292114 328.000000,244.500000 
"/>
<path fill="none" opacity="1.000000" stroke="#000000" stroke-linecap="round" stroke-linejoin="round" stroke-width="3.000000"
	d="
M333.500000,277.500000 
	C333.629791,279.771118 333.485413,281.810669 331.023407,283.046661 
	C329.256500,283.933685 327.560944,285.139984 327.500000,287.500000 
"/>
<path fill="none" opacity="1.000000" stroke="#000000" stroke-linecap="round" stroke-linejoin="round" stroke-width="4.000000"
	d="
M699.000000,241.000000 
	C697.843994,244.621689 698.819336,248.340271 698.500000,252.000000 
"/>
<path fill="none" opacity="1.000000" stroke="#000000" stroke-linecap="round" stroke-linejoin="round" stroke-width="6.000000"
	d="
M648.000122,261.500122 
	C646.668274,262.334991 645.336365,263.169861 643.663452,264.218506 
	C648.308472,268.684753 652.455933,267.544983 656.500000,267.000000 
"/>
<path fill="none" opacity="1.000000" stroke="#000000" stroke-linecap="round" stroke-linejoin="round" stroke-width="4.000000"
	d="
M657.500000,249.500000 
	C657.901367,252.861740 655.284485,256.072571 657.000000,259.500000 
"/>
<path fill="none" opacity="1.000000" stroke="#000000" stroke-linecap="round" stroke-linejoin="round" stroke-width="3.000000"
	d="
M269.000000,225.000000 
	C267.333344,226.833344 265.725708,228.725357 263.980377,230.480469 
	C262.703522,231.764450 261.665955,233.055237 262.000000,235.000000 
"/>
<path fill="none" opacity="1.000000" stroke="#000000" stroke-linecap="round" stroke-linejoin="round" stroke-width="4.000000"
	d="
M677.999939,245.000000 
	C678.333313,248.333344 678.666626,251.666672 678.999939,255.000000 
"/>
<path fill="none" opacity="1.000000" stroke="#000000" stroke-linecap="round" stroke-linejoin="round" stroke-width="4.000000"
	d="
M734.000000,257.000000 
	C731.405029,259.835876 732.892212,263.316315 732.500000,266.500000 
"/>
<path fill="none" opacity="1.000000" stroke="#000000" stroke-linecap="round" stroke-linejoin="round" stroke-width="3.000000"
	d="
M630.000000,139.000000 
	C630.293762,140.971741 628.577087,141.595612 627.464478,142.453964 
	C625.794250,143.742569 623.951477,144.771240 624.000000,147.250000 
"/>
<path fill="none" opacity="1.000000" stroke="#000000" stroke-linecap="round" stroke-linejoin="round" stroke-width="4.000000"
	d="
M414.500000,236.000000 
	C416.792633,239.122086 421.203461,235.889633 423.500000,239.000000 
"/>
<path fill="none" opacity="1.000000" stroke="#000000" stroke-linecap="round" stroke-linejoin="round" stroke-width="4.000000"
	d="
M715.500000,256.500000 
	C715.500000,259.333344 715.500000,262.166656 715.500000,265.000000 
"/>
<path fill="none" opacity="1.000000" stroke="#000000" stroke-linecap="round" stroke-linejoin="round" stroke-width="3.000000"
	d="
M345.500000,282.000000 
	C347.795441,284.445099 348.650696,287.970306 351.500000,290.000000 
"/>
<path fill="none" opacity="1.000000" stroke="#000000" stroke-linecap="round" stroke-linejoin="round" stroke-width="3.000000"
	d="
M437.500000,227.000000 
	C438.666656,229.500000 439.833313,232.000000 441.000000,234.500000 
"/>
<path fill="none" opacity="1.000000" stroke="#000000" stroke-linecap="round" stroke-linejoin="round" stroke-width="3.000000"
	d="
M360.500000,141.000000 
	C359.475952,143.436432 359.595978,146.254211 358.000000,148.500000 
"/>
<path fill="none" opacity="1.000000" stroke="#000000" stroke-linecap="round" stroke-linejoin="round" stroke-width="3.000000"
	d="
M181.000000,220.500000 
	C184.283722,222.738754 182.980972,226.506348 184.335770,229.910492 
	C182.009323,231.132126 179.754669,232.316055 177.500000,233.499985 
"/>
<path fill="none" opacity="1.000000" stroke="#000000" stroke-linecap="round" stroke-linejoin="round" stroke-width="3.000000"
	d="
M528.000000,176.500000 
	C528.500000,177.166672 529.001404,177.832306 529.499756,178.500168 
	C531.862671,181.666458 532.777405,184.833328 529.500000,188.000000 
"/>
<path fill="none" opacity="1.000000" stroke="#000000" stroke-linecap="round" stroke-linejoin="round" stroke-width="3.000000"
	d="
M174.000000,226.500000 
	C176.160019,228.131271 176.188080,230.746521 177.000000,233.000000 
"/>
<path fill="none" opacity="1.000000" stroke="#000000" stroke-linecap="round" stroke-linejoin="round" stroke-width="3.000000"
	d="
M344.000000,261.500000 
	C344.341156,265.496094 348.376526,267.645081 349.000000,271.500000 
"/>
<path fill="none" opacity="1.000000" stroke="#000000" stroke-linecap="round" stroke-linejoin="round" stroke-width="3.000000"
	d="
M152.000000,219.500000 
	C151.666672,221.333328 151.333328,223.166672 151.000000,225.000000 
"/>
<path fill="none" opacity="1.000000" stroke="#000000" stroke-linecap="round" stroke-linejoin="round" stroke-width="3.000000"
	d="
M473.500000,170.500000 
	C473.517303,172.888229 473.556671,175.288483 470.500000,176.000000 
"/>
</svg>